<svg width="512" height="512" xmlns="http://www.w3.org/2000/svg">

 <g>
  <title>background</title>
  <rect fill="none" id="canvas_background" height="402" width="582" y="-1" x="-1"/>
 </g>
 <g>
  <title>Layer 1</title>
  <path id="svg_4" fill="#0080FF" d="m106.102,456.304l65.38,0l0,-65.289l-65.38,0l0,65.289zm-54.646,-119.937l0,54.647l54.646,0l0,-54.647l-54.646,0zm413.572,-150.544c-20.404,-65.823 -73.098,-118.253 -138.922,-138.922c-150.898,-47.106 -290.086,65.114 -290.086,209.005l84.986,0c0,-90.308 89.598,-160.125 184.609,-125.705c35.217,12.686 63.427,40.896 76.114,76.025c34.685,94.922 -35.22,184.342 -125.439,184.522l0,0.267l-0.265,0l0,84.983c144.244,0 256.199,-139.099 209.003,-290.175l0,0zm-208.738,204.925l0,-84.545l-84.808,0l0,84.812l84.542,0l0,-0.267l0.266,0z"/>
  <path id="svg_5" fill="#0060BF" d="m256.025,485.998c-5.523,0 -10,-4.478 -10,-10l0,-74.983l-64.542,0l0,55.289c0,5.522 -4.477,10 -10,10l-65.38,0c-5.523,0 -10,-4.478 -10,-10l0,-55.289l-44.647,0c-5.523,0 -10,-4.478 -10,-10l0,-54.647c0,-5.522 4.477,-10 10,-10l54.646,0c5.523,0 10,4.478 10,10l0,44.647l45.38,0l0,-74.812c0,-5.522 4.477,-10 10,-10l84.808,0c5.522,0 10,4.478 10,10l0,74.119c36.816,-3.061 70.73,-22.455 92.155,-53.159c23.703,-33.969 28.766,-76.797 13.892,-117.505c-11.65,-32.256 -37.855,-58.43 -70.11,-70.049c-15.306,-5.544 -30.879,-8.353 -46.305,-8.353c-68.878,0 -124.915,55.917 -124.915,124.649c0,5.523 -4.477,10 -10,10l-84.987,0c-5.523,0 -10,-4.477 -10,-10c0,-126.77 103.188,-229.904 230.024,-229.904c24.334,0 48.908,3.82 73.042,11.354c33.888,10.64 65.204,29.656 90.58,54.997c25.448,25.413 44.437,56.71 54.914,90.509c22.864,73.19 10.782,149.45 -33.153,209.205c-20.938,28.476 -48.554,52.097 -79.865,68.309c-32.374,16.763 -68.868,25.623 -105.537,25.623zm10,-85.598l0,65.356c62.813,-3.035 121.779,-34.523 159.288,-85.538c40.126,-54.573 51.123,-124.341 30.17,-191.414c-19.235,-62.053 -69.956,-112.763 -132.373,-132.362c-22.187,-6.926 -44.756,-10.441 -67.066,-10.441c-112.45,0 -204.543,88.792 -209.789,199.904l65.094,0c5.16,-75.116 68.031,-134.649 144.572,-134.649c17.756,0 35.622,3.211 53.1,9.542c37.774,13.607 68.478,44.275 82.113,82.03c17.132,46.884 11.199,96.387 -16.288,135.778c-25.215,36.138 -65.364,58.767 -108.821,61.794zm-149.923,45.904l45.38,0l0,-45.289l-45.38,0l0,45.289zm65.38,-65.289l64.808,0l0,-64.812l-64.808,0l0,64.812zm-120.026,0l34.646,0l0,-34.647l-34.646,0l0,34.647z"/>
 </g>
</svg>